<?xml version="1.0" encoding="UTF-8" standalone="no"?>
<svg
   version="1.1"
   id="Layer_1"
   x="0px"
   y="0px"
   width="100%"
   viewBox="0 0 465 449"
   enable-background="new 0 0 465 449"
   xml:space="preserve"
   sodipodi:docname="c-head.svg"
   inkscape:export-filename="logo.png"
   inkscape:export-xdpi="96"
   inkscape:export-ydpi="96"
   inkscape:version="1.2.2 (732a01da63, 2022-12-09)"
   xmlns:inkscape="http://www.inkscape.org/namespaces/inkscape"
   xmlns:sodipodi="http://sodipodi.sourceforge.net/DTD/sodipodi-0.dtd"
   xmlns="http://www.w3.org/2000/svg"
   xmlns:svg="http://www.w3.org/2000/svg"><defs
   id="defs37" /><sodipodi:namedview
   id="namedview35"
   pagecolor="#505050"
   bordercolor="#eeeeee"
   borderopacity="1"
   inkscape:showpageshadow="0"
   inkscape:pageopacity="0"
   inkscape:pagecheckerboard="0"
   inkscape:deskcolor="#505050"
   showgrid="false"
   inkscape:zoom="0.93207128"
   inkscape:cx="306.84349"
   inkscape:cy="391.60095"
   inkscape:window-width="1920"
   inkscape:window-height="1017"
   inkscape:window-x="1912"
   inkscape:window-y="-8"
   inkscape:window-maximized="1"
   inkscape:current-layer="Layer_1" />




<path
   fill="#0469b5"
   opacity="1"
   stroke="none"
   d="m 114.06347,245.47672 c 3.00018,5.49711 5.76772,11.51568 8.91756,17.32708 6.20613,11.45026 14.31893,21.40363 24.92072,29.03235 6.25781,4.50299 12.6174,9.2421 19.63453,12.21487 73.67591,8.73769 133.12098,8.1092 191.29627,7.6238 -6.16037,23.18856 -26.46308,28.84863 -46.46402,28.88466 -36.10922,-0.0399 -72.21834,-0.1474 -108.78607,-0.23599 -42.14442,-0.97048 -73.94478,-23.6887 -104.905939,-45.95035 -2.636718,-1.87482 -2.169273,-3.55759 -0.246116,-5.08826 10.519505,-8.37268 14.553265,-19.54083 14.618825,-32.60257 0.018,-3.5941 0.62026,-7.18529 1.01424,-11.20559 z"
   id="path10"
   sodipodi:nodetypes="csscccccssc"
   inkscape:label="blue_bottom" /><path
   fill="#1bbe87"
   opacity="1"
   stroke="none"
   d="m 114.12328,245.04892 c -7.83789,-23.07441 -9.35304,-43.88357 -16.327786,-65.24082 -3.719708,-11.41701 -19.74335,-56.55517 -6.005868,-57.07074 25.752614,30.70817 58.838224,62.05282 89.544494,64.49727 7.15685,0.57487 22.40225,-2.80109 29.67993,-3.07481 49.64391,3.57117 50.66779,2.36417 87.45355,26.71531 7.71131,-0.66849 13.0097,-6.05611 18.47866,-9.86944 15.14117,19.37845 28.03888,40.06574 36.41754,63.31426 5.49493,15.24691 9.71637,30.72201 5.41708,47.45867 -42.32168,0.60917 -83.89676,1.04725 -125.47294,1.2064 -13.11147,0.0502 -26.32457,0.20712 -39.30492,-1.29459 -17.83403,-2.24901 -34.53839,-9.68789 -46.10127,-19.85428 -18.64055,-12.75604 -24.92384,-28.8995 -33.77847,-46.78723 z"
   id="path8"
   sodipodi:nodetypes="cccccccscsccc"
   inkscape:label="green_middle" />
<path
   fill="#a4c932"
   opacity="1"
   stroke="none"
   d="m 316.86639,200.66731 c -5.38909,4.15171 -10.26075,9.91865 -18.27732,10.43103 -1.87274,-1.69042 -2.67669,-3.43153 -3.79982,-5.05729 -9.98044,-14.44713 -23.05457,-24.4871 -40.53069,-27.98116 -40.52796,1.8357 -66.24952,16.3212 -103.1563,6.38285 -5.32554,-1.45553 -9.83766,-5.78044 -14.81335,-8.64297 -15.36337,-8.83866 -26.50478,-21.80556 -35.78173,-36.55991 -2.885697,-4.58951 -5.345665,-9.44669 -8.328568,-14.74497 -1.842231,-6.21945 -0.358604,-12.74474 -5.166252,-17.87221 -0.0589,-4.25164 -0.171265,-8.060928 -0.28363,-11.870208 3.643142,-6.570442 10.650985,-7.636818 16.78024,-9.866196 3.40459,-1.238327 7.28684,-1.163437 11.26313,-1.031349 0.28568,3.14457 0.39585,5.649758 0.21623,8.133988 22.34034,59.400015 83.68916,57.317475 121.82301,61.716935 25.46757,7.01954 69.90939,27.14719 80.05502,46.96101 z"
   id="path12"
   sodipodi:nodetypes="ccccccscccsccccc"
   inkscape:label="green stripe" />
<path
   fill="#7fc642"
   opacity="1"
   stroke="none"
   d="m 235.0573,154.19601 c -1.32862,0.93026 -2.63648,2.62825 -3.98925,2.66481 -19.09891,3.02862 -44.92169,7.58701 -61.98229,7.02011 -53.41743,-15.31215 -59.26134,-47.16146 -53.94948,-79.884653 20.74582,2.648334 74.44292,13.883333 88.61624,32.585613 -6.85226,1.20235 -14.66689,0.89646 -20.83249,2.4488 -8.51589,2.14406 -11.57042,9.47085 -11.70804,17.21667 -0.12173,6.85109 3.14398,13.04007 10.0867,15.74307 4.07587,1.58684 8.57947,2.84482 12.90288,2.88341 13.61548,0.12154 27.23672,-0.40323 40.85573,-0.67783 z"
   id="path14"
   sodipodi:nodetypes="cccccssssc" />
<path
   fill="#1cbf87"
   opacity="1"
   stroke="none"
   d="m 221.09054,154.54376 c -19.35097,0.49094 -49.40124,5.46337 -50.41499,-18.22935 -1.74666,-17.30678 18.10804,-22.20745 33.07277,-19.7311 11.5607,7.57647 26.5474,27.02185 32.93596,36.84121 -0.26343,0.38627 0.91301,1.29542 -15.59374,1.11924 z"
   id="path16"
   sodipodi:nodetypes="ccccc"
   style="fill:#1bbe87;fill-opacity:1" />
<path
   fill="#2a1530"
   opacity="1"
   stroke="none"
   d="m 91.863922,124.31947 c -2.799171,7.27233 -1.369034,14.29695 0.01784,21.06613 2.862732,12.91527 7.642182,22.16121 5.680175,34.13915 C 73.94694,170.25692 64.526434,95.936837 86.556588,94.995598 c -0.07245,10.191442 3.912843,3.508314 5.307334,29.323872 z"
   id="path18"
   sodipodi:nodetypes="ccccc"
   inkscape:label="head_back" />

<path
   fill="#7fc642"
   opacity="1"
   stroke="none"
   d="m 203.80463,116.60661 c -135.869755,-77.737739 -67.93488,-38.868868 0,0 z"
   id="path22"
   sodipodi:nodetypes="cc" />
<path
   fill="#2c1630"
   opacity="1"
   stroke="none"
   d="m 254.25856,178.05989 c 17.47612,3.49406 30.55025,13.53403 40.53069,27.98116 11.85714,10.19915 6.01773,81.25116 -41.8139,72.3666 36.02243,-12.27825 42.31636,-64.48229 6.54944,-78.43838 -23.61203,-5.05125 -29.48529,0.761 -49.466,9.54056 -2.59874,-12.18067 -11.52143,-22.81344 -5.83365,-24.41993 12.9812,-3.66649 34.19561,-9.90499 50.03343,-7.03001 z"
   id="path24"
   sodipodi:nodetypes="cccccscc"
   style="fill:#2a1530;fill-opacity:1" /><path
   fill="#2f142e"
   opacity="1"
   stroke="none"
   d="m 239.81222,226.55812 c 1.91091,-1.09798 4.89273,-1.6192 7.53613,-2.30139 6.22074,0.8531 10.08924,5.15004 11.37702,10.41543 2.89809,11.91278 -12.89483,19.66047 -19.89082,13.34829 -8.54792,-5.03003 -4.72883,-18.0114 0.97767,-21.46233 z"
   id="path32"
   sodipodi:nodetypes="ccccc"
   inkscape:label="pupil" />
<path
   fill="#f02868"
   opacity="1"
   stroke="none"
   d="m 259.82687,200.1442 c 12.95043,3.25266 23.35843,19.26493 24.34787,31.9685 1.70128,27.22469 -9.13868,38.45857 -31.63299,46.18247 -8.68925,2.14685 -34.08547,-2.37067 -36.98968,-10.67227 8.45291,-5.9671 16.31706,-12.92046 20.35984,-22.22837 5.09274,4.73833 11.9392,6.03659 16.84125,2.51334 4.11122,-3.09267 7.43394,-7.2591 5.97221,-13.23571 -1.28778,-5.26539 -5.67785,-9.18301 -11.21127,-10.3094 4.33115,-8.77315 11.27063,-15.37484 12.31277,-24.21856 z"
   id="path26"
   sodipodi:nodetypes="ccccccscc"
   inkscape:label="pink_eye" />
<path
   fill="#f5a406"
   opacity="1"
   stroke="none"
   d="m 235.98136,245.43752 c -3.77934,9.52809 -11.85784,16.85838 -20.43178,22.48875 -7.77344,-3.99081 -10.75797,-12.30119 -12.78337,-19.89969 -3.62043,-13.5825 -2.13135,-26.56885 7.14807,-38.24237 15.59643,-12.39455 33.76084,-17.8917 50.41516,-9.54672 -0.30592,8.97364 -9.03512,17.82211 -13.25043,24.22709 -13.03384,2.72451 -14.48885,11.58043 -11.09765,20.97294 z"
   id="path28"
   sodipodi:nodetypes="ccscccc"
   inkscape:label="orange_eye" />


</svg>
